<?xml version="1.0" encoding="UTF-8"?>
<svg width="64px" height="42px" viewBox="0 0 64 42" version="1.1" xmlns="http://www.w3.org/2000/svg" xmlns:xlink="http://www.w3.org/1999/xlink">
    <!-- Generator: Sketch 48.2 (47327) - http://www.bohemiancoding.com/sketch -->
    <title>Ambulance</title>
    <desc>Created with Sketch.</desc>
    <defs></defs>
    <g id="Icons" stroke="none" stroke-width="1" fill="none" fill-rule="evenodd" transform="translate(-707.000000, 0.000000)">
        <path d="M720.8,30.0169149 C717.4,30.0169149 714.8,32.8169149 714.8,36.0169149 C714.8,39.2169149 717.4,42.0169149 720.8,42.0169149 C724.2,42.0169149 726.8,39.2169149 726.8,36.0169149 C726.8,32.8169149 724,30.0169149 720.8,30.0169149 Z M720.8,38.6169149 C719.4,38.6169149 718.2,37.4169149 718.2,36.0169149 C718.2,34.6169149 719.4,33.4169149 720.8,33.4169149 C722.2,33.4169149 723.4,34.6169149 723.4,36.0169149 C723.4,37.6169149 722.2,38.6169149 720.8,38.6169149 Z M764.4,20.4169149 C762.2,19.8169149 761,19.4169149 760,17.8169149 L757,11.8169149 C756.2,10.2169149 753.8,8.81691486 752,8.81691486 L747.4,8.81691486 L747.4,3.41691486 C747.4,1.41691486 745.8,0.0169148552 744,0.0169148552 L710.4,0.0169148552 C708.6,-0.183085145 707,1.41691486 707,3.41691486 L707,33.0169149 C707,35.0169149 708.6,36.4169149 710.4,36.4169149 L713,36.4169149 C713,36.2169149 713,36.2169149 713,36.0169149 C713,31.6169149 716.6,28.2169149 720.8,28.2169149 C725.2,28.2169149 728.6,31.8169149 728.6,36.0169149 C728.6,36.2169149 728.6,36.2169149 728.6,36.4169149 L744.2,36.4169149 C744.4,36.4169149 744.6,36.4169149 744.8,36.4169149 C744.8,36.2169149 744.8,36.2169149 744.8,36.0169149 C744.8,31.6169149 748.4,28.2169149 752.6,28.2169149 C757,28.2169149 760.4,31.8169149 760.4,36.0169149 C760.4,36.2169149 760.4,36.2169149 760.4,36.4169149 L767.6,36.4169149 C769.4,36.4169149 771,34.8169149 771,33.0169149 L771,26.4169149 C771,21.0169149 766.2,21.0169149 764.4,20.4169149 Z M736.4,17.6169149 C736.4,18.6169149 735.6,19.4169149 734.6,19.4169149 L730.6,19.4169149 L730.6,23.2169149 C730.6,24.2169149 729.8,25.0169149 728.8,25.0169149 L725.8,25.0169149 C724.8,25.0169149 724,24.2169149 724,23.2169149 L724,19.4169149 L720.2,19.4169149 C719.2,19.4169149 718.4,18.6169149 718.4,17.6169149 L718.4,14.4169149 C718.4,13.4169149 719.2,12.6169149 720.2,12.6169149 L724,12.6169149 L724,8.81691486 C724,7.81691486 724.8,7.01691486 725.8,7.01691486 L729,7.01691486 C730,7.01691486 730.8,7.81691486 730.8,8.81691486 L730.8,12.6169149 L734.6,12.6169149 C735.6,12.6169149 736.4,13.4169149 736.4,14.4169149 L736.4,17.6169149 Z M747.6,20.2169149 L747.6,11.4169149 L750.8,11.4169149 C752.4,11.4169149 754.4,12.6169149 755.2,14.2169149 L757.8,19.4169149 C758,19.8169149 758.2,20.0169149 758.4,20.4169149 L747.6,20.4169149 L747.6,20.2169149 Z M752.6,30.0169149 C749.2,30.0169149 746.6,32.8169149 746.6,36.0169149 C746.6,39.2169149 749.2,42.0169149 752.6,42.0169149 C756,42.0169149 758.6,39.2169149 758.6,36.0169149 C758.6,32.8169149 755.8,30.0169149 752.6,30.0169149 Z M752.6,38.6169149 C751.2,38.6169149 750,37.4169149 750,36.0169149 C750,34.6169149 751.2,33.4169149 752.6,33.4169149 C754,33.4169149 755.2,34.6169149 755.2,36.0169149 C755.2,37.6169149 754,38.6169149 752.6,38.6169149 Z" id="Ambulance" fill="#444444" fill-rule="nonzero"></path>
    </g>
</svg>