<?xml version="1.0" encoding="UTF-8"?>
<svg width="64px" height="64px" viewBox="0 0 64 64" version="1.1" xmlns="http://www.w3.org/2000/svg" xmlns:xlink="http://www.w3.org/1999/xlink">
    <!-- Generator: Sketch 48.2 (47327) - http://www.bohemiancoding.com/sketch -->
    <title>Calendar</title>
    <desc>Created with Sketch.</desc>
    <defs></defs>
    <g id="Icons" stroke="none" stroke-width="1" fill="none" fill-rule="evenodd" transform="translate(-817.000000, 0.000000)">
        <path d="M873.89,7.11 L870.688,7.11 L870.688,14.22 L859.314,14.22 L859.314,7.11 L838.688,7.11 L838.688,14.22 L827.31,14.22 L827.31,7.11 L824.11,7.11 C820.204,7.11 817,10.312 817,14.222 L817,56.89 C817,60.796 820.202,64 824.11,64 L873.888,64 C877.798,64 881,60.798 881,56.89 L881,14.222 C881,10.312 877.798,7.11 873.89,7.11 Z M873.89,56.89 L824.11,56.89 L824.11,28.444 L873.888,28.444 L873.888,56.89 L873.89,56.89 Z M835.488,0 L830.514,0 L830.514,12.09 L835.492,12.09 L835.492,0 L835.488,0 Z M867.488,0 L862.51,0 L862.51,12.09 L867.488,12.09 L867.488,0 Z" id="Calendar" fill="#444444" fill-rule="nonzero"></path>
    </g>
</svg>