<?xml version="1.0" encoding="UTF-8"?>
<svg width="59px" height="64px" viewBox="0 0 59 64" version="1.1" xmlns="http://www.w3.org/2000/svg" xmlns:xlink="http://www.w3.org/1999/xlink">
    <!-- Generator: Sketch 48.2 (47327) - http://www.bohemiancoding.com/sketch -->
    <title>doc</title>
    <desc>Created with Sketch.</desc>
    <defs></defs>
    <g id="Icons" stroke="none" stroke-width="1" fill="none" fill-rule="evenodd" transform="translate(-419.000000, 0.000000)">
        <g id="doc" transform="translate(419.000000, 0.000000)" fill="#444444" fill-rule="nonzero">
            <path d="M23.6,20.6 C23.6,19.2 23.2,18.4 22.8,17.8 C22.2,17.2 21.4,16.8 20.6,16.8 C19.6,16.8 19,17.2 18.4,17.8 C17.8,18.4 17.6,19.4 17.6,20.6 C17.6,22 18,22.8 18.4,23.4 C19,24 19.8,24.4 20.6,24.4 C21.4,24.4 22.2,24 22.8,23.4 C23.4,22.8 23.6,21.8 23.6,20.6 Z" id="Shape"></path>
            <path d="M11.4,20.6 C11.4,19.8 11.2,19 11.2,18.6 C11,18.2 10.8,17.8 10.6,17.6 C10.2,17.4 10,17.2 9.6,17 C9.2,16.8 8.6,16.8 7.8,16.8 L6.8,16.8 L6.8,24.2 L8.4,24.2 C9,24.2 9.4,24.2 9.8,24 C10.2,23.8 10.4,23.8 10.6,23.6 C10.8,23.4 11,23 11.2,22.6 C11.2,22.2 11.4,21.4 11.4,20.6 Z" id="Shape"></path>
            <path d="M47,1.77635684e-15 L6.6,1.77635684e-15 L6.6,8.8 L0,8.8 L0,32 L6.6,32 L6.6,64 L58.2,64 L58.2,10.4 L47,1.77635684e-15 Z M4.4,26.2 L4.4,15 L8.6,15 C9.6,15 10.2,15.2 10.6,15.2 C11.2,15.4 11.8,15.8 12.2,16.2 C12.6,16.6 13,17.2 13.2,18 C13.4,18.8 13.6,19.6 13.6,20.6 C13.6,21.4 13.4,22.4 13.2,23 C12.8,23.8 12.6,24.4 12,25 C11.6,25.4 11.2,25.6 10.4,25.8 C9.8,26 9.2,26 8.4,26 L4.4,26.2 Z M54.4,60.4 C51,60.4 13.6,60.4 10.4,60.4 C10.4,58.6 10.4,45.4 10.4,32.2 L41.8,32.2 L41.8,9 L10.4,9 C10.4,6.4 10.4,4.6 10.4,4 C13.6,4 44.2,4 45.6,4 C46.4,4.8 53.4,11.2 54.4,12.2 C54.4,13.6 54.4,57 54.4,60.4 Z M15.2,20.8 C15.2,19.8 15.4,18.8 15.8,18 C16,17.4 16.4,17 16.8,16.4 C17.2,16 17.6,15.6 18.2,15.4 C18.8,15 19.8,15 20.6,15 C22.2,15 23.6,15.6 24.6,16.6 C25.6,17.6 26.2,19 26.2,20.8 C26.2,22.6 25.8,24 24.8,25 C23.8,26 22.6,26.6 20.8,26.6 C19,26.6 17.8,26 16.8,25 C15.6,23.8 15.2,22.4 15.2,20.8 Z M30.4,23.6 C31,24.2 31.6,24.4 32.4,24.4 C33,24.4 33.4,24.2 34,23.8 C34.6,23.4 34.8,22.8 35,22 L37.2,22.6 C36.8,23.8 36.4,24.6 35.6,25.4 C34.8,26 33.8,26.2 32.6,26.2 C31,26.2 29.8,25.6 29,24.6 C28,23.6 27.6,22.2 27.6,20.4 C27.6,18.6 28,17.2 29,16 C30,15 31.2,14.4 32.8,14.4 C34.2,14.4 35.2,14.8 36,15.6 C36.6,16 36.8,16.8 37,17.6 L34.8,18.2 C34.6,17.6 34.4,17.2 34,16.8 C33.6,16.4 33,16.2 32.4,16.2 C31.6,16.2 30.8,16.6 30.4,17 C29.8,17.6 29.6,18.6 29.6,19.8 C29.6,22 29.8,22.8 30.4,23.6 Z" id="Shape"></path>
        </g>
    </g>
</svg>