<?xml version="1.0" encoding="UTF-8"?>
<svg width="20px" height="20px" viewBox="0 0 20 20" version="1.1" xmlns="http://www.w3.org/2000/svg" xmlns:xlink="http://www.w3.org/1999/xlink">
    <!-- Generator: Sketch 48.2 (47327) - http://www.bohemiancoding.com/sketch -->
    <title>Add</title>
    <desc>Created with Sketch.</desc>
    <defs></defs>
    <g id="Icons" stroke="none" stroke-width="1" fill="none" fill-rule="evenodd" transform="translate(-30.000000, 0.000000)">
        <g id="Add" transform="translate(30.000000, 0.000000)" fill="white" fill-rule="nonzero">
            <path d="M10,19.80625 C4.568125,19.80625 0.15875,15.396875 0.15875,9.965 C0.15875,4.533125 4.568125,0.12375 10,0.12375 C15.431875,0.12375 19.84125,4.533125 19.84125,9.965 C19.84125,15.396875 15.431875,19.80625 10,19.80625 Z M10,1.181875 C5.15,1.181875 1.216875,5.115 1.216875,9.965 C1.216875,14.815 5.15,18.748125 10,18.748125 C14.85,18.748125 18.783125,14.815 18.783125,9.965 C18.783125,5.115 14.85,1.181875 10,1.181875 Z" id="Shape"></path>
            <polygon id="Shape" points="14.796875 9.0125 10.97 9.0125 10.97 5.185625 9.0475 5.185625 9.0475 9.0125 5.238125 9.0125 5.238125 10.935 9.0475 10.935 9.0475 14.744375 10.97 14.744375 10.97 10.935 14.796875 10.935"></polygon>
        </g>
    </g>
</svg>