<?xml version="1.0" encoding="UTF-8"?>
<svg width="64px" height="64px" viewBox="0 0 64 64" version="1.1" xmlns="http://www.w3.org/2000/svg" xmlns:xlink="http://www.w3.org/1999/xlink">
    <!-- Generator: Sketch 48.2 (47327) - http://www.bohemiancoding.com/sketch -->
    <title>Geoloc</title>
    <desc>Created with Sketch.</desc>
    <defs></defs>
    <g id="Icons" stroke="none" stroke-width="1" fill="none" fill-rule="evenodd" transform="translate(-326.000000, 0.000000)">
        <path d="M390,53.094 C390,60.254 373.904,64 358,64 C342.096,64 326,60.254 326,53.094 C326,47.16 336.344,44.41 342.514,43.284 L343.242,47.264 C333.276,49.07 330.05,51.968 330.05,53.094 C330.05,55.508 340.666,59.966 358.006,59.966 C375.338,59.966 385.95,55.516 385.95,53.094 C385.95,51.91 383.196,49.158 372.758,47.264 L373.488,43.284 C384.444,45.28 390,48.57 390,53.094 Z M358,55.514 C358,55.514 341.79,30.188 341.79,16.162 C341.792,7.284 349.088,0 358,0 C366.912,0 374.204,7.284 374.204,16.162 C374.204,29.908 358,55.514 358,55.514 Z M358,21.556 C360.968,21.556 363.402,19.132 363.402,16.162 C363.402,13.212 360.968,10.784 358,10.784 C355.026,10.784 352.598,13.214 352.598,16.162 C352.598,19.132 355.03,21.556 358,21.556 Z" id="Geoloc" fill="#444444" fill-rule="nonzero"></path>
    </g>
</svg>