<?xml version="1.0" encoding="UTF-8"?>
<svg width="20px" height="20px" viewBox="0 0 20 20" version="1.1" xmlns="http://www.w3.org/2000/svg" xmlns:xlink="http://www.w3.org/1999/xlink">
    <!-- Generator: Sketch 48.2 (47327) - http://www.bohemiancoding.com/sketch -->
    <title>Information</title>
    <desc>Created with Sketch.</desc>
    <defs></defs>
    <g id="Icons" stroke="none" stroke-width="1" fill="#A05599" fill-rule="evenodd" transform="translate(-68.000000, 0.000000)">
        <path d="M78,20 C72.486,20 68,15.515 68,10 C68,4.487 72.486,0 78,0 C83.514,0 88,4.486 88,10 C88,15.515 83.514,20 78,20 Z M78,2 C82.411,2 86,5.589 86,10 C86,14.411 82.411,18 78,18 C73.589,18 70,14.411 70,10 C70,5.589 73.589,2 78,2 Z M79,13 L79,9 C79,8.448 78.553,8 78,8 L76,8 L76,10 L77,10 L77,13 L75,13 L75,15 L81,15 L81,13 L79,13 Z M78,7.25 C78.6903559,7.25 79.25,6.69035594 79.25,6 C79.25,5.30964406 78.6903559,4.75 78,4.75 C77.3096441,4.75 76.75,5.30964406 76.75,6 C76.75,6.69035594 77.3096441,7.25 78,7.25 Z" id="Information" fill="#A05599"></path>
    </g>
</svg>