<?xml version="1.0" encoding="utf-8"?>
<!-- Generator: Adobe Illustrator 14.0.0, SVG Export Plug-In . SVG Version: 6.00 Build 43363)  -->
<!DOCTYPE svg PUBLIC "-//W3C//DTD SVG 1.1//EN" "http://www.w3.org/Graphics/SVG/1.1/DTD/svg11.dtd">
<svg version="1.1" id="Calque_1" xmlns="http://www.w3.org/2000/svg" xmlns:xlink="http://www.w3.org/1999/xlink" x="0px" y="0px"
	 width="315.84px" height="312px" viewBox="0 0 315.84 312" enable-background="new 0 0 315.84 312" xml:space="preserve">
<rect x="3.156" y="256.635" fill="#FFFFFF" width="310.684" height="52.564"/>
<rect x="3.156" y="256.635" fill="none" stroke="#E30613" stroke-miterlimit="10" width="310.684" height="52.564"/>
<g>
	<defs>
		<rect id="SVGID_3_" x="-139.14" y="-264.445" width="595.28" height="841.89"/>
	</defs>
	<clipPath id="SVGID_1_">
		<use xlink:href="#SVGID_3_"  overflow="visible"/>
	</clipPath>
	<path clip-path="url(#SVGID_1_)" fill="#E30613" d="M31.57,294.717c-0.792,0-1.422-0.224-1.89-0.666
		c-0.468-0.444-0.702-1.171-0.702-2.18c-0.84,1.009-1.818,1.735-2.934,2.18c-1.116,0.442-2.322,0.666-3.618,0.666
		c-0.84,0-1.632-0.091-2.376-0.271c-0.744-0.179-1.398-0.479-1.962-0.899c-0.564-0.419-1.008-0.959-1.332-1.619
		c-0.324-0.66-0.486-1.458-0.486-2.396c0-1.055,0.18-1.92,0.54-2.591c0.36-0.672,0.833-1.218,1.422-1.638
		c0.588-0.42,1.26-0.738,2.016-0.954c0.756-0.217,1.53-0.397,2.322-0.54c0.84-0.168,1.638-0.294,2.394-0.378
		s1.422-0.204,1.998-0.361c0.576-0.156,1.032-0.383,1.368-0.683s0.504-0.738,0.504-1.315c0-0.671-0.126-1.212-0.378-1.62
		c-0.252-0.406-0.576-0.719-0.972-0.935s-0.841-0.361-1.332-0.433c-0.492-0.071-0.978-0.107-1.458-0.107
		c-1.296,0-2.376,0.246-3.24,0.737c-0.864,0.491-1.332,1.423-1.404,2.79h-3.06c0.048-1.151,0.288-2.124,0.72-2.916
		s1.008-1.435,1.728-1.927c0.72-0.49,1.548-0.845,2.484-1.061s1.92-0.325,2.952-0.325c0.84,0,1.674,0.062,2.502,0.18
		c0.828,0.121,1.578,0.366,2.25,0.738c0.672,0.373,1.212,0.896,1.62,1.567c0.408,0.672,0.612,1.548,0.612,2.628v9.575
		c0,0.721,0.042,1.249,0.126,1.584c0.084,0.337,0.365,0.505,0.846,0.505c0.264,0,0.576-0.061,0.936-0.182v2.376
		C33.238,294.56,32.506,294.717,31.57,294.717 M27.286,285.338c-0.625,0.133-1.278,0.239-1.962,0.323
		c-0.684,0.085-1.374,0.182-2.07,0.288c-0.697,0.109-1.32,0.283-1.872,0.523c-0.553,0.24-1.002,0.582-1.35,1.024
		c-0.348,0.444-0.522,1.052-0.522,1.819c0,0.503,0.102,0.93,0.306,1.278c0.203,0.347,0.468,0.63,0.792,0.846
		c0.324,0.215,0.708,0.372,1.152,0.467c0.444,0.098,0.894,0.146,1.35,0.146c1.008,0,1.872-0.14,2.592-0.414
		c0.72-0.277,1.308-0.624,1.764-1.044s0.792-0.876,1.008-1.368c0.216-0.493,0.324-0.954,0.324-1.387v-3.132
		C28.414,284.995,27.91,285.207,27.286,285.338"/>
	<path clip-path="url(#SVGID_1_)" fill="#E30613" d="M40.066,290.162c0.288,0.468,0.666,0.841,1.134,1.115
		c0.468,0.277,0.995,0.476,1.584,0.595c0.588,0.121,1.194,0.181,1.818,0.181c0.48,0,0.984-0.037,1.512-0.109
		c0.528-0.071,1.014-0.204,1.458-0.396c0.444-0.192,0.81-0.474,1.098-0.846s0.432-0.847,0.432-1.423c0-0.792-0.301-1.391-0.9-1.8
		c-0.6-0.408-1.35-0.737-2.25-0.99c-0.9-0.252-1.878-0.479-2.934-0.683c-1.056-0.205-2.034-0.493-2.934-0.865
		c-0.9-0.372-1.65-0.893-2.25-1.565c-0.6-0.671-0.9-1.608-0.9-2.809c0-0.936,0.21-1.739,0.63-2.412
		c0.419-0.672,0.96-1.218,1.62-1.638c0.66-0.419,1.404-0.731,2.232-0.936c0.828-0.203,1.65-0.307,2.466-0.307
		c1.056,0,2.028,0.09,2.916,0.271c0.888,0.18,1.674,0.492,2.358,0.936c0.684,0.445,1.23,1.044,1.638,1.8
		c0.408,0.757,0.648,1.698,0.72,2.826h-3.06c-0.049-0.599-0.204-1.097-0.468-1.494c-0.264-0.395-0.6-0.714-1.008-0.953
		c-0.409-0.239-0.858-0.414-1.35-0.521c-0.492-0.109-0.99-0.163-1.494-0.163c-0.456,0-0.918,0.037-1.386,0.108
		c-0.468,0.071-0.894,0.197-1.278,0.378c-0.384,0.18-0.696,0.421-0.936,0.721c-0.24,0.299-0.36,0.689-0.36,1.169
		c0,0.529,0.185,0.966,0.558,1.314c0.372,0.349,0.846,0.637,1.422,0.863c0.576,0.229,1.224,0.421,1.944,0.576
		c0.72,0.157,1.44,0.319,2.16,0.487c0.768,0.168,1.517,0.372,2.25,0.611c0.732,0.239,1.38,0.559,1.944,0.954
		c0.564,0.396,1.02,0.895,1.368,1.493c0.348,0.602,0.522,1.346,0.522,2.233c0,1.128-0.234,2.063-0.702,2.807
		c-0.468,0.744-1.08,1.346-1.836,1.801s-1.608,0.773-2.556,0.953c-0.949,0.181-1.89,0.271-2.826,0.271
		c-1.032,0-2.016-0.109-2.952-0.325c-0.936-0.215-1.764-0.57-2.484-1.062c-0.72-0.491-1.296-1.141-1.728-1.943
		c-0.432-0.805-0.672-1.783-0.72-2.935h3.06C39.622,289.124,39.778,289.693,40.066,290.162"/>
	<path clip-path="url(#SVGID_1_)" fill="#E30613" d="M59.182,290.162c0.288,0.468,0.666,0.841,1.134,1.115
		c0.468,0.277,0.995,0.476,1.584,0.595c0.588,0.121,1.194,0.181,1.818,0.181c0.48,0,0.984-0.037,1.512-0.109
		c0.528-0.071,1.014-0.204,1.458-0.396c0.444-0.192,0.81-0.474,1.098-0.846c0.288-0.372,0.432-0.847,0.432-1.423
		c0-0.792-0.301-1.391-0.9-1.8c-0.6-0.408-1.35-0.737-2.25-0.99c-0.9-0.252-1.878-0.479-2.934-0.683
		c-1.056-0.205-2.034-0.493-2.934-0.865c-0.9-0.372-1.65-0.893-2.25-1.565c-0.6-0.671-0.9-1.608-0.9-2.809
		c0-0.936,0.21-1.739,0.63-2.412c0.419-0.672,0.96-1.218,1.62-1.638c0.66-0.419,1.404-0.731,2.232-0.936
		c0.828-0.203,1.65-0.307,2.466-0.307c1.056,0,2.028,0.09,2.916,0.271c0.888,0.18,1.674,0.492,2.358,0.936
		c0.684,0.445,1.23,1.044,1.638,1.8c0.408,0.757,0.648,1.698,0.72,2.826h-3.06c-0.049-0.599-0.204-1.097-0.468-1.494
		c-0.264-0.395-0.6-0.714-1.008-0.953c-0.409-0.239-0.858-0.414-1.35-0.521c-0.492-0.109-0.99-0.163-1.494-0.163
		c-0.456,0-0.918,0.037-1.386,0.108c-0.468,0.071-0.894,0.197-1.278,0.378c-0.384,0.18-0.696,0.421-0.936,0.721
		c-0.24,0.299-0.36,0.689-0.36,1.169c0,0.529,0.185,0.966,0.558,1.314c0.372,0.349,0.846,0.637,1.422,0.863
		c0.576,0.229,1.224,0.421,1.944,0.576c0.72,0.157,1.44,0.319,2.16,0.487c0.768,0.168,1.517,0.372,2.25,0.611
		c0.732,0.239,1.38,0.559,1.944,0.954c0.564,0.396,1.02,0.895,1.368,1.493c0.348,0.602,0.522,1.346,0.522,2.233
		c0,1.128-0.234,2.063-0.702,2.807c-0.468,0.744-1.08,1.346-1.836,1.801s-1.608,0.773-2.556,0.953
		c-0.949,0.181-1.89,0.271-2.826,0.271c-1.032,0-2.016-0.109-2.952-0.325c-0.936-0.215-1.764-0.57-2.484-1.062
		c-0.72-0.491-1.296-1.141-1.728-1.943c-0.432-0.805-0.672-1.783-0.72-2.935h3.06C58.737,289.124,58.894,289.693,59.182,290.162"/>
	<path clip-path="url(#SVGID_1_)" fill="#E30613" d="M88.486,294.32v-2.952h-0.072c-0.648,1.151-1.476,1.998-2.484,2.538
		s-2.196,0.81-3.564,0.81c-1.224,0-2.244-0.162-3.06-0.486c-0.816-0.323-1.476-0.785-1.98-1.386
		c-0.504-0.599-0.859-1.313-1.062-2.142c-0.204-0.828-0.306-1.746-0.306-2.754v-12.24h3.06v12.6c0,1.152,0.336,2.065,1.008,2.736
		c0.671,0.672,1.596,1.008,2.772,1.008c0.936,0,1.746-0.144,2.43-0.432s1.254-0.696,1.71-1.225c0.456-0.526,0.798-1.145,1.026-1.854
		c0.228-0.707,0.342-1.482,0.342-2.322v-10.512h3.06v18.612H88.486z"/>
	<path clip-path="url(#SVGID_1_)" fill="#E30613" d="M99.862,275.708v3.924h0.072c0.743-1.513,1.656-2.628,2.736-3.349
		c1.08-0.72,2.448-1.055,4.104-1.008v3.241c-1.224,0-2.268,0.168-3.132,0.504c-0.864,0.335-1.561,0.828-2.088,1.476
		c-0.528,0.648-0.913,1.435-1.152,2.357c-0.24,0.924-0.36,1.987-0.36,3.187v8.279h-3.06v-18.611H99.862z"/>
	<path clip-path="url(#SVGID_1_)" fill="#E30613" d="M122.722,293.131c-1.392,1.058-3.145,1.586-5.256,1.586
		c-1.488,0-2.778-0.24-3.87-0.722c-1.092-0.479-2.01-1.15-2.754-2.015s-1.302-1.896-1.674-3.096c-0.372-1.2-0.582-2.509-0.63-3.926
		c0-1.415,0.216-2.712,0.648-3.887c0.432-1.176,1.038-2.197,1.818-3.06c0.779-0.864,1.704-1.536,2.772-2.018
		c1.067-0.479,2.237-0.719,3.51-0.719c1.656,0,3.03,0.342,4.122,1.026c1.092,0.684,1.968,1.554,2.628,2.608
		c0.659,1.058,1.116,2.209,1.368,3.456c0.252,1.249,0.353,2.438,0.306,3.565h-13.932c-0.024,0.814,0.072,1.59,0.288,2.32
		c0.216,0.733,0.564,1.382,1.044,1.945c0.479,0.564,1.092,1.014,1.836,1.349c0.744,0.338,1.62,0.506,2.628,0.506
		c1.296,0,2.358-0.301,3.186-0.9s1.373-1.512,1.638-2.737h3.024C125.013,290.503,124.113,292.076,122.722,293.131 M121.984,281.181
		c-0.276-0.648-0.648-1.206-1.116-1.676c-0.468-0.468-1.021-0.84-1.656-1.114c-0.636-0.276-1.338-0.414-2.106-0.414
		c-0.792,0-1.507,0.138-2.142,0.414c-0.636,0.274-1.183,0.653-1.638,1.134c-0.456,0.479-0.817,1.038-1.08,1.674
		c-0.264,0.636-0.42,1.314-0.468,2.034h10.692C122.421,282.513,122.259,281.827,121.984,281.181"/>
	<path clip-path="url(#SVGID_1_)" fill="#E30613" d="M142.521,294.32v-2.952h-0.072c-0.648,1.151-1.476,1.998-2.484,2.538
		s-2.196,0.81-3.564,0.81c-1.224,0-2.244-0.162-3.06-0.486c-0.816-0.323-1.476-0.785-1.98-1.386
		c-0.504-0.599-0.859-1.313-1.062-2.142c-0.204-0.828-0.306-1.746-0.306-2.754v-12.24h3.06v12.6c0,1.152,0.336,2.065,1.008,2.736
		c0.671,0.672,1.596,1.008,2.772,1.008c0.936,0,1.746-0.144,2.43-0.432s1.254-0.696,1.71-1.225c0.456-0.526,0.798-1.145,1.026-1.854
		c0.228-0.707,0.342-1.482,0.342-2.322v-10.512h3.06v18.612H142.521z"/>
	<path clip-path="url(#SVGID_1_)" fill="#E30613" d="M153.898,275.708v3.924h0.072c0.743-1.513,1.656-2.628,2.736-3.349
		c1.08-0.72,2.448-1.055,4.104-1.008v3.241c-1.224,0-2.268,0.168-3.132,0.504c-0.864,0.335-1.561,0.828-2.088,1.476
		c-0.528,0.648-0.913,1.435-1.152,2.357c-0.24,0.924-0.36,1.987-0.36,3.187v8.279h-3.06v-18.611H153.898z"/>
	<path clip-path="url(#SVGID_1_)" fill="#E30613" d="M178.233,275.708v2.735h0.072c1.391-2.11,3.396-3.168,6.012-3.168
		c1.152,0,2.196,0.241,3.132,0.721c0.936,0.48,1.596,1.296,1.98,2.447c0.624-1.007,1.445-1.788,2.466-2.34
		c1.02-0.551,2.143-0.828,3.364-0.828c0.938,0,1.784,0.104,2.539,0.307c0.757,0.203,1.405,0.521,1.944,0.953
		c0.541,0.434,0.959,0.99,1.26,1.675s0.451,1.507,0.451,2.467v13.643h-3.061v-12.204c0-0.575-0.049-1.115-0.145-1.619
		c-0.096-0.505-0.275-0.941-0.539-1.313c-0.266-0.372-0.631-0.666-1.1-0.882c-0.467-0.217-1.074-0.324-1.816-0.324
		c-1.512,0-2.702,0.431-3.564,1.295c-0.864,0.865-1.296,2.017-1.296,3.457v11.591h-3.061v-12.204c0-0.599-0.054-1.151-0.162-1.655
		c-0.107-0.504-0.294-0.941-0.558-1.314c-0.264-0.372-0.618-0.66-1.063-0.864c-0.443-0.203-1.014-0.305-1.71-0.305
		c-0.888,0-1.649,0.179-2.285,0.54c-0.637,0.359-1.152,0.792-1.549,1.295c-0.396,0.504-0.684,1.026-0.863,1.566
		c-0.181,0.54-0.271,0.989-0.271,1.351v11.591h-3.06v-18.611H178.233z"/>
	<path clip-path="url(#SVGID_1_)" fill="#E30613" d="M207.356,268.616h3.061v3.744h-3.061V268.616z M210.417,294.32h-3.061v-18.612
		h3.061V294.32z"/>
	<rect x="216.464" y="268.616" clip-path="url(#SVGID_1_)" fill="#E30613" width="3.06" height="25.704"/>
	<path clip-path="url(#SVGID_1_)" fill="#E30613" d="M225.571,268.616h3.06v3.744h-3.06V268.616z M228.631,294.32h-3.06v-18.612
		h3.06V294.32z"/>
	<path clip-path="url(#SVGID_1_)" fill="#E30613" d="M242.454,275.708v2.699h-3.708v11.557c0,0.359,0.03,0.647,0.09,0.864
		c0.059,0.216,0.174,0.385,0.343,0.504c0.167,0.121,0.401,0.197,0.701,0.233c0.3,0.037,0.69,0.054,1.171,0.054h1.403v2.7h-2.34
		c-0.792,0-1.472-0.053-2.034-0.162c-0.563-0.106-1.021-0.305-1.368-0.594c-0.348-0.288-0.606-0.696-0.774-1.224
		c-0.168-0.528-0.252-1.225-0.252-2.088v-11.845h-3.168v-2.699h3.168v-5.58h3.061v5.58H242.454z"/>
	<path clip-path="url(#SVGID_1_)" fill="#E30613" d="M261.246,294.717c-0.792,0-1.422-0.224-1.89-0.666
		c-0.468-0.444-0.703-1.171-0.703-2.18c-0.839,1.009-1.817,1.735-2.933,2.18c-1.116,0.442-2.322,0.666-3.618,0.666
		c-0.841,0-1.633-0.091-2.376-0.271c-0.744-0.179-1.398-0.479-1.962-0.899c-0.564-0.419-1.008-0.959-1.332-1.619
		c-0.325-0.66-0.487-1.458-0.487-2.396c0-1.055,0.181-1.92,0.54-2.591c0.361-0.672,0.834-1.218,1.423-1.638
		c0.588-0.42,1.26-0.738,2.017-0.954c0.756-0.217,1.529-0.397,2.321-0.54c0.84-0.168,1.639-0.294,2.395-0.378
		s1.422-0.204,1.998-0.361c0.576-0.156,1.031-0.383,1.368-0.683c0.335-0.3,0.504-0.738,0.504-1.315c0-0.671-0.126-1.212-0.378-1.62
		c-0.252-0.406-0.576-0.719-0.973-0.935c-0.396-0.216-0.841-0.361-1.332-0.433c-0.492-0.071-0.978-0.107-1.458-0.107
		c-1.296,0-2.376,0.246-3.239,0.737c-0.864,0.491-1.332,1.423-1.404,2.79h-3.061c0.048-1.151,0.288-2.124,0.721-2.916
		c0.431-0.792,1.008-1.435,1.727-1.927c0.721-0.49,1.549-0.845,2.485-1.061c0.936-0.216,1.92-0.325,2.952-0.325
		c0.84,0,1.674,0.062,2.502,0.18c0.828,0.121,1.577,0.366,2.25,0.738c0.671,0.373,1.211,0.896,1.62,1.567
		c0.407,0.672,0.611,1.548,0.611,2.628v9.575c0,0.721,0.042,1.249,0.126,1.584c0.084,0.337,0.365,0.505,0.847,0.505
		c0.264,0,0.575-0.061,0.935-0.182v2.376C262.914,294.56,262.183,294.717,261.246,294.717 M256.962,285.338
		c-0.624,0.133-1.277,0.239-1.962,0.323c-0.685,0.085-1.374,0.182-2.069,0.288c-0.697,0.109-1.321,0.283-1.872,0.523
		c-0.553,0.24-1.003,0.582-1.351,1.024c-0.349,0.444-0.521,1.052-0.521,1.819c0,0.503,0.102,0.93,0.306,1.278
		c0.203,0.347,0.468,0.63,0.792,0.846c0.323,0.215,0.708,0.372,1.152,0.467c0.443,0.098,0.894,0.146,1.35,0.146
		c1.008,0,1.872-0.14,2.592-0.414c0.721-0.277,1.309-0.624,1.765-1.044c0.455-0.42,0.792-0.876,1.007-1.368
		c0.217-0.493,0.325-0.954,0.325-1.387v-3.132C258.09,284.995,257.586,285.207,256.962,285.338"/>
	<path clip-path="url(#SVGID_1_)" fill="#E30613" d="M270.569,274.674v3.115h0.076c1.343-2.381,3.471-3.57,6.384-3.57
		c1.292,0,2.369,0.177,3.229,0.53c0.861,0.356,1.559,0.851,2.091,1.483s0.905,1.386,1.12,2.26c0.216,0.874,0.324,1.843,0.324,2.908
		v12.919h-3.23v-13.299c0-1.216-0.354-2.179-1.063-2.889c-0.71-0.708-1.686-1.063-2.927-1.063c-0.987,0-1.843,0.152-2.565,0.456
		c-0.721,0.303-1.323,0.735-1.804,1.292c-0.483,0.557-0.843,1.21-1.083,1.957c-0.241,0.747-0.362,1.564-0.362,2.451v11.095h-3.229
		v-19.646H270.569z"/>
	<path clip-path="url(#SVGID_1_)" fill="#E30613" d="M297.056,274.674v2.851h-3.914v12.198c0,0.38,0.031,0.683,0.095,0.912
		c0.063,0.227,0.184,0.404,0.361,0.53c0.177,0.127,0.424,0.209,0.741,0.247c0.316,0.038,0.728,0.059,1.234,0.059h1.482v2.849h-2.47
		c-0.837,0-1.553-0.056-2.147-0.17c-0.596-0.115-1.077-0.324-1.445-0.627c-0.367-0.304-0.639-0.735-0.815-1.292
		c-0.179-0.557-0.268-1.292-0.268-2.204v-12.502h-3.343v-2.851h3.343v-5.891h3.231v5.891H297.056z"/>
	
		<line clip-path="url(#SVGID_1_)" fill="none" stroke="#000000" stroke-width="0.5" stroke-miterlimit="10" x1="300.371" y1="261.734" x2="300.371" y2="304.884"/>
	<rect x="45.497" y="3.802" clip-path="url(#SVGID_1_)" fill="#007759" width="226.001" height="225.999"/>
	<polygon clip-path="url(#SVGID_1_)" fill="#E30613" points="69.426,187.235 247.254,187.235 158.485,23.688 	"/>
	<path clip-path="url(#SVGID_1_)" fill="#FFFFFF" d="M201.342,110.048c-0.588,2.081-0.597,4.384-0.692,6.67v32.222
		c0.113,2.254,0.407,4.484,0.912,6.582h-16.313c0.553-2.021,0.734-4.196,0.804-6.437V135.82v-17.844
		c-0.324-2.641-0.285-5.449-1.072-7.896l0.014-0.039L201.342,110.048z"/>
	<path clip-path="url(#SVGID_1_)" fill="#FFFFFF" d="M256.325,110.05l0.03,9.654v0.145c-1.586-0.605-3.385-0.7-5.178-0.797h-16.586
		L226,119.084v12.077h24.228c2.079-0.193,4.296-0.208,6.167-0.908v11.107c-1.924-0.748-4.088-0.763-6.249-0.923l-4.732-0.078
		l-9.421,0.013h-9.87v8.186c0.112,2.38,0.315,4.736,0.795,6.959h-15.938c1.084-3.416,0.699-7.372,0.747-11.266v-27.868
		c-0.178-2.081-0.319-4.397-0.938-6.333h36.198H256.325z"/>
	<path clip-path="url(#SVGID_1_)" fill="#FFFFFF" d="M124.846,120.662v11.523v16.094c0.112,2.446,0.337,4.916,0.929,7.172h-8.008
		h-0.045h-7.818c1.074-3.797,0.731-7.64,0.77-11.565c0,0,0.146-23.367,0-23.606l-12.606,27.67c-0.964,2.416-2.105,4.828-2.496,7.501
		H85.357c-0.484-2.528-1.409-4.918-2.464-7.203l-13.049-27.972l0.054,29.329c0.195,2.035,0.327,3.986,0.917,5.846H60.378
		c0.665-2.642,0.687-5.414,0.776-8.352v-26.725c-0.104-3.574-0.033-7.191-1.057-10.48h-0.045c-0.017-0.063,0.045,0.03,0.075,0H80.42
		c0.531,3.429,2.191,6.162,3.528,9.261l9.248,20.08l8.87-19.021v-0.033c1.504-3.303,3.192-6.599,3.946-10.287
		c-0.19-0.14,0.08,0.03,0,0h19.706C124.739,113.251,124.962,116.995,124.846,120.662"/>
	<path clip-path="url(#SVGID_1_)" fill="#FFFFFF" d="M146.319,114.678c0.596-1.514,1.146-2.988,1.314-4.704h6.206h9.49
		c0.294,1.906,1.099,3.505,1.824,5.216l18.764,40.327h-16.638c-0.156-0.668-0.272-1.393-0.502-2.09
		c-0.813-2.715-2.031-5.447-3.172-8.029h-0.146h-17.805h-3.674c-1.086,1.72-1.646,3.728-2.478,5.594
		c-0.534,1.416-0.925,3.03-1.277,4.525h-10.331l5.543-12.2L146.319,114.678z M152.806,121.087l-7.39,17.239h14.94L152.806,121.087z"
		/>
</g>
</svg>
