<?xml version="1.0" encoding="UTF-8"?>
<svg width="64px" height="54px" viewBox="0 0 64 54" version="1.1" xmlns="http://www.w3.org/2000/svg" xmlns:xlink="http://www.w3.org/1999/xlink">
    <!-- Generator: Sketch 48.2 (47327) - http://www.bohemiancoding.com/sketch -->
    <title>Pharmacie</title>
    <desc>Created with Sketch.</desc>
    <defs></defs>
    <g id="Icons" stroke="none" stroke-width="1" fill="none" fill-rule="evenodd" transform="translate(-607.000000, 0.000000)">
        <path d="M662.8,8.4 L661.6,8.4 L661.6,6.4 C661.6,6 661.2,5.6 660.8,5.6 L656,5.6 C655.6,5.6 655.2,6 655.2,6.4 L655.2,8.4 L650.8,8.4 L650.8,6.2 C650.8,2.8 648,0 644.6,0 L633.6,0 C630.2,0 627.4,2.8 627.4,6.2 L627.4,8.4 L623,8.4 L623,6.4 C623,6 622.6,5.6 622.2,5.6 L617.4,5.6 C617,5.6 616.6,6 616.6,6.4 L616.6,8.4 L615.2,8.4 C610.6,8.4 607,12 607,16.6 L607,45.6 C607,50.2 610.6,53.8 615.2,53.8 L662.8,53.8 C667.4,53.8 671,50.2 671,45.6 L671,16.6 C671,12 667.4,8.4 662.8,8.4 Z M630.8,6.2 C630.8,4.8 632,3.6 633.4,3.6 L644.4,3.6 C645.8,3.6 647,4.8 647,6.2 L647,8.4 L630.8,8.4 L630.8,6.2 Z M639,46 C630.8,46 624.2,39.4 624.2,31.2 C624.2,23 630.8,16.4 639,16.4 C647.2,16.4 653.8,23 653.8,31.2 C653.8,39.4 647.2,46 639,46 Z M650.2,34.8 C650.2,35 650.2,35.2 650,35.4 C649.8,35.6 649.6,35.6 649.4,35.6 L643.6,35.6 L643.6,41.4 C643.6,41.8 643.2,42.2 642.8,42.2 L635.4,42.2 C635,42.2 634.6,41.8 634.6,41.4 L634.6,35.6 L628.8,35.6 C628.6,35.6 628.4,35.6 628.2,35.4 C628,35.2 628,35 628,34.8 L628,27.4 C628,27 628.4,26.6 628.8,26.6 L634.6,26.6 L634.6,20.8 C634.6,20.4 635,20 635.4,20 L642.8,20 C643.2,20 643.6,20.4 643.6,20.8 L643.6,26.6 L649.4,26.6 C649.8,26.6 650.2,27 650.2,27.4 L650.2,34.8 Z" id="Pharmacie" fill="#8D3E87" fill-rule="nonzero"></path>
    </g>
</svg>