<?xml version="1.0" encoding="UTF-8"?>
<svg width="64px" height="64px" viewBox="0 0 64 64" version="1.1" xmlns="http://www.w3.org/2000/svg" xmlns:xlink="http://www.w3.org/1999/xlink">
    <!-- Generator: Sketch 48.2 (47327) - http://www.bohemiancoding.com/sketch -->
    <title>signature</title>
    <desc>Created with Sketch.</desc>
    <defs></defs>
    <g id="Icons" stroke="none" stroke-width="1" fill="none" fill-rule="evenodd" transform="translate(-907.000000, 0.000000)">
        <g id="signature" transform="translate(907.000000, 0.000000)" fill="#8D3E87" fill-rule="nonzero">
            <path d="M51.6,7.6 C46.4,3.6 39.8,0 32.6,0 C26.4,0 20.8,1.6 15.8,4.6 C6.4,10.2 0,20.6 0,32.6 C0,39 1.8,44.6 5,49.4 C10.8,58.2 21,64 32.6,64 C50.6,64 64,50.6 64,32.6 C64,21.8 59.2,13.6 51.6,7.6 Z M32.6,62 C21.8,62 12.2,56.6 6.8,48.4 C4,44 2.2,38.6 2.2,32.6 C2.2,21.6 8,11.8 16.8,6.4 C21.4,3.6 26.6,2 32.4,2 C39.2,2 45.2,5.4 50.2,9.2 C57.2,14.8 61.6,22.6 61.6,32.6 C61.8,49.4 49.2,62 32.6,62 Z" id="Shape"></path>
            <path d="M43.6,31 L39,36 C38.6,36.4 36.6,37.2 36.4,37 C36.2,36.8 36.2,34.6 36.6,34 L40.6,28.2 C40.6,28.2 41,29 42,29.8 C42.8,30.8 43.6,31 43.6,31 Z" id="Shape"></path>
            <path d="M48.2,26 L44.4,30 C44.4,30 43.4,29.6 42.6,29 C41.8,28.4 41,27.2 41,27.2 L44,23 C44.4,22.6 46.8,21 48,22 C49.4,23 48.6,25.4 48.2,26 Z" id="Shape"></path>
            <path d="M46.2,30.6 C45.8,30.4 45.8,29.8 46.2,29.6 L48.6,27 C48.8,26.8 49.4,26.6 49.6,27 C49.8,27.2 50,27.8 49.6,28 L47.2,30.6 C47,30.8 46.4,30.8 46.2,30.6 Z" id="Shape"></path>
            <path d="M38,38.8 L38,41.6 C38,41.6 38,42 37.6,42 C37.2,42 22.8,42 22.4,42 C22,42 22,41.6 22,41.6 L22,23 C22,22.4 22,22 22.6,22 L37.4,22 C38,22 38,22.6 38,23 L38,29 L40,26.2 L40,23 C40,21.4 39.4,20 37.8,20 L22.6,20 C21,20 20,21.4 20,23 L20,42.6 C20,44.2 21,44 22.6,44 L37.8,44 C39.4,44 40,44.2 40,42.6 L40,36.8 L38,38.8 Z" id="Shape"></path>
            <polygon id="Shape" points="23 25.4 36.8 25.4 36.8 26.8 23 26.8 23 25.4"></polygon>
            <polygon id="Shape" points="23 29.2 36.8 29.2 36.8 30.6 23 30.6 23 29.2"></polygon>
            <polygon id="Shape" points="31.2 37.8 36 37.8 36 39.2 31.2 39.2"></polygon>
        </g>
    </g>
</svg>