<?xml version="1.0" encoding="UTF-8"?>
<svg width="64px" height="64px" viewBox="0 0 64 64" version="1.1" xmlns="http://www.w3.org/2000/svg" xmlns:xlink="http://www.w3.org/1999/xlink">
    <!-- Generator: Sketch 48.2 (47327) - http://www.bohemiancoding.com/sketch -->
    <title>Success</title>
    <desc>Created with Sketch.</desc>
    <defs></defs>
    <g id="Icons" stroke="none" stroke-width="1" fill="none" fill-rule="evenodd" transform="translate(-516.000000, 0.000000)">
        <path d="M548,0 C530.326,0 516,14.326 516,32 C516,49.674 530.326,64 548,64 C565.674,64 580,49.674 580,32 C580,14.326 565.674,0 548,0 Z M561.584,22.086 C559.738,24.768 556.374,30.576 553.408,35.708 C551.226,39.478 549.162,43.042 547.862,45.094 C547.516,45.734 546.908,46.124 546.214,46.124 C545.814,46.124 545.398,45.99 545.014,45.74 C540.416,42.562 537.996,39.052 534.636,34.194 L534.454,33.928 C533.766,32.91 533.692,31.592 534.246,30.472 C534.688,29.576 535.478,29.016 536.294,29.016 C536.742,29.016 537.408,29.176 538.044,29.95 C539.26,31.422 540.198,32.756 541.11,34.04 C542.576,36.11 543.862,37.928 545.868,39.704 C547.366,37.406 549.676,33.474 551.916,29.662 C554.444,25.364 557.052,20.92 558.546,18.74 C558.908,18.19 559.432,17.876 560.002,17.876 C560.738,17.876 561.464,18.414 561.848,19.242 C562.296,20.196 562.19,21.284 561.586,22.09 L561.584,22.086 Z" id="Success" fill="#444444" fill-rule="nonzero"></path>
    </g>
</svg>